# xmcd
#
# Track frame offsets:
#  150
#  15226
#  33614
#  50973
#  66891
#  90032
#  123587
#  147082
#  163154
#  198847
#  215872
#  236087
#  252694
#  263659
#  274888
#  292937
#  308346
#
# Disc length: 4403 seconds
#
# Revision: 1
# Processed by: cddbd v1.5.1PL0 Copyright (c) Steve Scherf et al.
# Submitted via: Collectorz.com Music Collector 6.9
#
DISCID=f9113111
DTITLE=robert earl keen - 1994-12-04 San Francisco, Ca - Disc 1
DYEAR=1994
DGENRE=
TTITLE0=Tuning
TTITLE1=Merry Christmas From The Family
TTITLE2=Tom Ames' Prayer
TTITLE3=Whenever Kindness Fails
TTITLE4=Corpus Christi Bay
TTITLE5=Barbeque
TTITLE6=Gringo Honeymoon
TTITLE7=Think It Over One Time
TTITLE8=The Front Porch Song
TTITLE9=It's The Little Things
TTITLE10=Daddy Had A Buick
TTITLE11=The Five Pound Bass
TTITLE12=I'm Going To Town
TTITLE13=Crazy Cowboy Dream
TTITLE14=Jesse With The Long Hair
TTITLE15=I Would Change My Life
TTITLE16=Lynnville Train
EXTD=
EXTT0=
EXTT1=
EXTT2=
EXTT3=
EXTT4=
EXTT5=
EXTT6=
EXTT7=
EXTT8=
EXTT9=
EXTT10=
EXTT11=
EXTT12=
EXTT13=
EXTT14=
EXTT15=
EXTT16=
PLAYORDER=
